<svg width="26" height="26" viewBox="0 0 26 26" fill="none" xmlns="http://www.w3.org/2000/svg">
<path d="M23.86 6.98006C22.91 5.92006 21.55 5.31006 20.13 5.31006H18.57C18.32 2.51006 15.96 0.310059 13.1 0.310059C10.07 0.310059 7.59999 2.78006 7.59999 5.81006V10.3101C7.59999 10.8601 8.04998 11.3101 8.59999 11.3101C9.14999 11.3101 9.59999 10.8601 9.59999 10.3101V5.81006C9.59999 3.88006 11.17 2.31006 13.1 2.31006C14.86 2.31006 16.3 3.62006 16.55 5.31006H12.6C12.05 5.31006 11.6 5.76006 11.6 6.31006C11.6 6.86006 12.05 7.31006 12.6 7.31006H20.13C20.98 7.31006 21.8 7.67006 22.37 8.31006C22.94 8.95006 23.21 9.80006 23.12 10.6401L22.01 20.6401C21.84 22.1601 20.56 23.3101 19.03 23.3101H6.18999C4.65999 23.3101 3.37999 22.1601 3.20999 20.6401L2.09998 10.6401C2.00998 9.79006 2.27998 8.94006 2.84998 8.31006C3.41998 7.68006 4.22998 7.31006 5.08998 7.31006C5.63999 7.31006 6.08998 6.86006 6.08998 6.31006C6.08998 5.76006 5.63999 5.31006 5.08998 5.31006C3.66998 5.31006 2.30999 5.92006 1.35999 6.98006C0.409985 8.04006 -0.0400151 9.46006 0.119985 10.8701L1.22998 20.8701C1.50998 23.4101 3.64999 25.3201 6.19999 25.3201H19.04C21.59 25.3201 23.73 23.4101 24.01 20.8701L25.12 10.8701C25.28 9.46006 24.82 8.04006 23.88 6.98006H23.86Z" fill="white"/>
</svg>
