<svg width="36" height="35" viewBox="0 0 36 35" fill="none" xmlns="http://www.w3.org/2000/svg">
<path fill-rule="evenodd" clip-rule="evenodd" d="M1.84521 0.470459C1.06856 0.470459 0.438965 1.10006 0.438965 1.87671C0.438965 2.65336 1.06856 3.28296 1.84521 3.28296H5.21647L5.83477 5.66294L8.9702 17.7319C7.17961 18.1281 5.78959 19.68 5.78959 21.6144C5.78959 23.8633 7.66838 25.5951 9.87115 25.5951H30.3819C31.1585 25.5951 31.7881 24.9655 31.7881 24.1888C31.7881 23.4122 31.1585 22.7826 30.3819 22.7826H9.87115C9.11886 22.7826 8.60209 22.2091 8.60209 21.6144C8.60209 21.0196 9.11886 20.4461 9.87115 20.4461H10.7629H30.3819C31.0224 20.4461 31.5819 20.0134 31.743 19.3935L35.31 5.66294C35.4195 5.24162 35.3277 4.79336 35.0614 4.44902C34.795 4.10469 34.3843 3.90309 33.949 3.90309H8.28344L7.66514 1.52311C7.5041 0.903225 6.94454 0.470459 6.30407 0.470459H1.84521ZM10.7629 27.9315C9.05266 27.9315 7.57313 29.2791 7.57313 31.0541C7.57313 32.8291 9.05266 34.1767 10.7629 34.1767C12.4732 34.1767 13.9527 32.8291 13.9527 31.0541C13.9527 29.2791 12.4732 27.9315 10.7629 27.9315ZM28.5983 27.9315C26.8881 27.9315 25.4086 29.2791 25.4086 31.0541C25.4086 32.8291 26.8881 34.1767 28.5983 34.1767C30.3086 34.1767 31.7881 32.8291 31.7881 31.0541C31.7881 29.2791 30.3086 27.9315 28.5983 27.9315Z" fill="white"/>
</svg>
