<svg width="31" height="29" viewBox="0 0 31 29" fill="none" xmlns="http://www.w3.org/2000/svg">
<path d="M19.7273 0H7.04545C5.87591 0 4.87545 0.725 4.45273 1.769L0.197273 11.9915C0.0704545 12.325 0 12.673 0 13.05V15.95C0 17.545 1.26818 18.85 2.81818 18.85H11.7095L10.3709 25.4765L10.3286 25.9405C10.3286 26.535 10.5682 27.086 10.9486 27.4775L12.4423 29L21.7282 19.4445C22.2355 18.9225 22.5455 18.1975 22.5455 17.4V2.9C22.5455 1.305 21.2773 0 19.7273 0ZM25.3636 0V17.4H31V0H25.3636Z" fill="#313149"/>
</svg>
