<svg width="25" height="25" viewBox="0 0 25 25" fill="none" xmlns="http://www.w3.org/2000/svg">
<path d="M12.5 0C15.8152 0 18.9946 1.31696 21.3388 3.66117C23.683 6.00537 25 9.18479 25 12.5C25 15.8152 23.683 18.9946 21.3388 21.3388C18.9946 23.683 15.8152 25 12.5 25C10.8585 25 9.23303 24.6767 7.71646 24.0485C6.19989 23.4203 4.8219 22.4996 3.66117 21.3388C2.50043 20.1781 1.57969 18.8001 0.951506 17.2835C0.32332 15.767 0 14.1415 0 12.5C0 10.8585 0.32332 9.23303 0.951506 7.71646C1.57969 6.19989 2.50043 4.8219 3.66117 3.66117C4.8219 2.50043 6.19989 1.57969 7.71646 0.951506C9.23303 0.323322 10.8585 0 12.5 0ZM14.8684 19.0789L16.7105 17.2132L12.0105 12.5L16.7105 7.78684L14.8553 5.92105L8.27631 12.5L14.8684 19.0789Z" fill="#3D8583"/>
</svg>
