<svg width="24" height="24" viewBox="0 0 24 24" fill="none" xmlns="http://www.w3.org/2000/svg">
<path d="M22.8586 14.5194L18.3657 12.673C17.2791 12.2277 16.4137 11.41 15.9409 10.3891L13.9806 6.15723C13.8285 5.8291 13.3336 5.8291 13.1815 6.15723L11.2212 10.3891C10.7484 11.4126 9.88024 12.2277 8.79641 12.673L4.29793 14.522C3.94956 14.6653 3.94956 15.1288 4.29793 15.272L8.87383 17.1783C9.95766 17.6289 10.8203 18.4492 11.2876 19.4753L13.1843 23.6264C13.3336 23.9571 13.8313 23.9571 13.9833 23.6264L15.9409 19.4023C16.4137 18.3789 17.2819 17.5638 18.3657 17.1184L22.8586 15.272C23.207 15.1288 23.207 14.6626 22.8586 14.5194Z" fill="white"/>
<path d="M4.78731 11.7635L5.70525 9.78169C5.92644 9.30251 6.33288 8.91969 6.84162 8.71135L8.94847 7.84675C9.11159 7.77904 9.11159 7.56028 8.94847 7.49518L6.84162 6.63057C6.33288 6.42223 5.92644 6.03941 5.70525 5.56023L4.78731 3.57581C4.71542 3.42216 4.48317 3.42216 4.41405 3.57581L3.4961 5.56023C3.27491 6.03941 2.86847 6.42223 2.35973 6.63057L0.250123 7.49778C0.086995 7.56549 0.086995 7.78164 0.250123 7.84935L2.39568 8.7426C2.90442 8.95355 3.30809 9.33897 3.52652 9.81815L4.41681 11.7635C4.4887 11.9172 4.72095 11.9198 4.79007 11.7635H4.78731Z" fill="white"/>
<path d="M8.82684 2.76373L9.96597 3.2377C10.2369 3.34968 10.4498 3.55542 10.566 3.80803L11.0388 4.84191C11.0775 4.92525 11.1991 4.92525 11.2378 4.84191L11.7244 3.7898C11.8433 3.53458 12.059 3.33145 12.3272 3.22208L13.4442 2.76373C13.5299 2.72727 13.5299 2.61269 13.4442 2.57623L12.3272 2.11788C12.0562 2.0059 11.8406 1.80277 11.7244 1.55016L11.2378 0.498048C11.1991 0.417317 11.0775 0.417317 11.0388 0.498048L10.5521 1.55016C10.4332 1.80537 10.2176 2.0085 9.94938 2.11788L8.8296 2.57883C8.74389 2.61529 8.74389 2.72988 8.8296 2.76634L8.82684 2.76373Z" fill="white"/>
</svg>
