<svg width="25" height="25" viewBox="0 0 25 25" fill="none" xmlns="http://www.w3.org/2000/svg">
<path d="M12.5 0C9.18479 0 6.00537 1.31696 3.66117 3.66117C1.31696 6.00537 0 9.18479 0 12.5C0 15.8152 1.31696 18.9946 3.66117 21.3388C6.00537 23.683 9.18479 25 12.5 25C14.1415 25 15.767 24.6767 17.2835 24.0485C18.8001 23.4203 20.1781 22.4996 21.3388 21.3388C22.4996 20.1781 23.4203 18.8001 24.0485 17.2835C24.6767 15.767 25 14.1415 25 12.5C25 10.8585 24.6767 9.23303 24.0485 7.71646C23.4203 6.19989 22.4996 4.8219 21.3388 3.66117C20.1781 2.50043 18.8001 1.57969 17.2835 0.951506C15.767 0.323322 14.1415 0 12.5 0ZM10.1316 19.0789L8.28947 17.2132L12.9895 12.5L8.28947 7.78684L10.1447 5.92105L16.7237 12.5L10.1316 19.0789Z" fill="#3D8583"/>
</svg>
